<?xml version="1.0" encoding="UTF-8" standalone="no"?>
<!-- Created with Inkscape (http://www.inkscape.org/) -->

<svg
   xmlns:dc="http://purl.org/dc/elements/1.1/"
   xmlns:cc="http://creativecommons.org/ns#"
   xmlns:rdf="http://www.w3.org/1999/02/22-rdf-syntax-ns#"
   xmlns:svg="http://www.w3.org/2000/svg"
   xmlns="http://www.w3.org/2000/svg"
   xmlns:sodipodi="http://sodipodi.sourceforge.net/DTD/sodipodi-0.dtd"
   xmlns:inkscape="http://www.inkscape.org/namespaces/inkscape"
   width="210mm"
   height="297mm"
   viewBox="0 0 744.09448819 1052.3622047"
   id="svg4198"
   version="1.1"
   inkscape:version="0.91 r13725"
   sodipodi:docname="Stages.svg">
  <defs
     id="defs4200" />
  <sodipodi:namedview
     id="base"
     pagecolor="#ffffff"
     bordercolor="#666666"
     borderopacity="1.0"
     inkscape:pageopacity="0.0"
     inkscape:pageshadow="2"
     inkscape:zoom="0.7"
     inkscape:cx="219.9908"
     inkscape:cy="615.00257"
     inkscape:document-units="px"
     inkscape:current-layer="layer1"
     showgrid="false"
     inkscape:snap-center="true"
     inkscape:object-paths="true"
     inkscape:snap-smooth-nodes="false"
     inkscape:snap-midpoints="true"
     inkscape:window-width="1536"
     inkscape:window-height="801"
     inkscape:window-x="-8"
     inkscape:window-y="-8"
     inkscape:window-maximized="1">
    <inkscape:grid
       type="xygrid"
       id="grid4746" />
  </sodipodi:namedview>
  <metadata
     id="metadata4203">
    <rdf:RDF>
      <cc:Work
         rdf:about="">
        <dc:format>image/svg+xml</dc:format>
        <dc:type
           rdf:resource="http://purl.org/dc/dcmitype/StillImage" />
        <dc:title></dc:title>
      </cc:Work>
    </rdf:RDF>
  </metadata>
  <g
     inkscape:label="Ebene 1"
     inkscape:groupmode="layer"
     id="layer1">
    <path
       style="opacity:1;fill:#000000;fill-opacity:0.47468357;stroke:none;stroke-width:5;stroke-miterlimit:4;stroke-dasharray:none;stroke-dashoffset:0;stroke-opacity:0.67843137"
       d="M 183.67773 410.89648 A 21.515229 21.515229 0 0 0 183.48438 413.61133 A 21.515229 21.515229 0 0 0 197.25977 433.68555 A 10 10 0 0 1 195 427.36133 A 10 10 0 0 1 195.00586 427.25586 A 21.515229 21.515229 0 0 1 183.67773 410.89648 z M 226.32227 410.94727 A 21.515229 21.515229 0 0 1 214.99609 427.24414 A 10 10 0 0 1 215 427.36133 A 10 10 0 0 1 212.76367 433.6543 A 21.515229 21.515229 0 0 0 226.51562 413.61133 A 21.515229 21.515229 0 0 0 226.32227 410.94727 z "
       id="path4750" />
    <path
       style="opacity:1;fill:#000000;fill-opacity:0.47468357;stroke:none;stroke-width:5;stroke-miterlimit:4;stroke-dasharray:none;stroke-dashoffset:0;stroke-opacity:0.67843137"
       id="path4752"
       sodipodi:type="arc"
       sodipodi:cx="205"
       sodipodi:cy="404.38251"
       sodipodi:rx="20"
       sodipodi:ry="20"
       sodipodi:start="4.1887902"
       sodipodi:end="5.2359878"
       d="m 195,387.062 a 20,20 0 0 1 20,0 l -10,17.32051 z" />
    <path
       style="opacity:1;fill:#000000;fill-opacity:0.47468357;stroke:none;stroke-width:5;stroke-miterlimit:4;stroke-dasharray:none;stroke-dashoffset:0;stroke-opacity:0.67843137"
       d="M 195 390.04102 A 20 20 0 0 0 194.49414 390.36719 A 5 5 0 0 1 195.5918 393.49023 A 5 5 0 0 1 190.5918 398.49023 A 5 5 0 0 1 187.62109 397.50586 A 20 20 0 0 0 187.36133 398.02148 A 5 5 0 0 1 190.55469 402.68359 A 5 5 0 0 1 185.55469 407.68359 A 5 5 0 0 1 185.0293 407.65039 A 20 20 0 0 0 185.68164 412.53906 A 20 20 0 0 0 195.33008 424.86328 A 10 10 0 0 1 205 417.36133 A 10 10 0 0 1 214.67383 424.86133 A 20 20 0 0 0 224.31836 412.53906 A 20 20 0 0 0 224.9668 407.65039 A 5 5 0 0 1 224.44531 407.68359 A 5 5 0 0 1 219.44531 402.68359 A 5 5 0 0 1 222.64844 398.01758 A 20 20 0 0 0 222.38281 397.50391 A 5 5 0 0 1 219.4082 398.49023 A 5 5 0 0 1 214.4082 393.49023 A 5 5 0 0 1 215.50977 390.36523 A 20 20 0 0 0 215 390.04102 L 205 407.36133 L 195 390.04102 z "
       id="path4754" />
    <circle
       style="opacity:1;fill:#000000;fill-opacity:0.47468357;stroke:none;stroke-width:5;stroke-miterlimit:4;stroke-dasharray:none;stroke-dashoffset:0;stroke-opacity:0.67843137"
       id="path4770"
       cx="205"
       cy="427.36221"
       r="8.8635778" />
    <circle
       r="3.75"
       cy="402.6843"
       cx="224.44551"
       id="circle4783"
       style="opacity:1;fill:#000000;fill-opacity:0.47468357;stroke:none;stroke-width:5;stroke-miterlimit:4;stroke-dasharray:none;stroke-dashoffset:0;stroke-opacity:0.67843137" />
    <circle
       style="opacity:1;fill:#000000;fill-opacity:0.47468357;stroke:none;stroke-width:5;stroke-miterlimit:4;stroke-dasharray:none;stroke-dashoffset:0;stroke-opacity:0.67843137"
       id="circle4785"
       cx="219.40843"
       cy="393.49075"
       r="3.75" />
    <g
       id="g4791"
       transform="translate(-28.81686,0)"
       inkscape:transform-center-x="14.408428"
       inkscape:transform-center-y="-13.961397">
      <circle
         style="opacity:1;fill:#000000;fill-opacity:0.47468357;stroke:none;stroke-width:5;stroke-miterlimit:4;stroke-dasharray:none;stroke-dashoffset:0;stroke-opacity:0.67843137"
         id="circle4795"
         cx="219.40843"
         cy="393.49075"
         r="3.75" />
    </g>
    <circle
       style="opacity:1;fill:#000000;fill-opacity:0.47468357;stroke:none;stroke-width:5;stroke-miterlimit:4;stroke-dasharray:none;stroke-dashoffset:0;stroke-opacity:0.67843137"
       id="circle4799"
       cx="-185.55449"
       cy="402.6843"
       r="3.75"
       inkscape:transform-center-x="19.445511"
       inkscape:transform-center-y="-4.7678543"
       transform="scale(-1,1)" />
    <circle
       style="opacity:1;fill:none;fill-opacity:0.47468357;stroke:#000000;stroke-width:10;stroke-miterlimit:4;stroke-dasharray:none;stroke-dashoffset:0;stroke-opacity:1"
       id="path4842"
       cx="290"
       cy="407.36221"
       r="20" />
    <path
       style="fill:none;fill-rule:evenodd;stroke:#000000;stroke-width:5;stroke-linecap:round;stroke-linejoin:miter;stroke-opacity:1;stroke-miterlimit:4;stroke-dasharray:none"
       d="m 290,427.36221 0,37.85714"
       id="path4846"
       inkscape:connector-curvature="0" />
    <path
       inkscape:connector-curvature="0"
       id="path4848"
       d="m 308.92857,446.29078 -37.85714,0"
       style="fill:none;fill-rule:evenodd;stroke:#000000;stroke-width:5;stroke-linecap:round;stroke-linejoin:miter;stroke-opacity:1;stroke-miterlimit:4;stroke-dasharray:none" />
    <path
       inkscape:connector-curvature="0"
       id="path4850"
       d="m 304.14213,393.22008 26.76904,-26.76904"
       style="fill:none;fill-rule:evenodd;stroke:#000000;stroke-width:5;stroke-linecap:round;stroke-linejoin:miter;stroke-miterlimit:4;stroke-dasharray:none;stroke-opacity:1"
       inkscape:transform-center-y="-27.526653"
       inkscape:transform-center-x="-27.52665" />
    <path
       style="fill:none;fill-rule:evenodd;stroke:#000000;stroke-width:5;stroke-linecap:round;stroke-linejoin:miter;stroke-miterlimit:4;stroke-dasharray:none;stroke-opacity:1"
       d="m 330.82208,366.54013 -26.4127,0"
       id="path4860"
       inkscape:connector-curvature="0"
       inkscape:transform-center-x="13.295436"
       inkscape:transform-center-y="0.089085627" />
    <path
       inkscape:transform-center-y="13.295436"
       inkscape:transform-center-x="-0.089084"
       inkscape:connector-curvature="0"
       id="path4862"
       d="m 331.00025,366.54013 0,26.4127"
       style="fill:none;fill-rule:evenodd;stroke:#000000;stroke-width:5;stroke-linecap:round;stroke-linejoin:miter;stroke-miterlimit:4;stroke-dasharray:none;stroke-opacity:1" />
  </g>
</svg>
