<?xml version="1.0" encoding="UTF-8" standalone="no"?>
<!-- Created with Inkscape (http://www.inkscape.org/) -->

<svg
   xmlns:dc="http://purl.org/dc/elements/1.1/"
   xmlns:cc="http://creativecommons.org/ns#"
   xmlns:rdf="http://www.w3.org/1999/02/22-rdf-syntax-ns#"
   xmlns:svg="http://www.w3.org/2000/svg"
   xmlns="http://www.w3.org/2000/svg"
   xmlns:sodipodi="http://sodipodi.sourceforge.net/DTD/sodipodi-0.dtd"
   xmlns:inkscape="http://www.inkscape.org/namespaces/inkscape"
   width="500"
   height="500"
   viewBox="0 0 499.99998 499.99996"
   id="svg2"
   version="1.1"
   inkscape:version="0.91 r13725"
   sodipodi:docname="sym_dna.svg">
  <defs
     id="defs4">
    <clipPath
       clipPathUnits="userSpaceOnUse"
       id="clipPath4163">
      <circle
         style="opacity:1;fill:#c9e1d6;fill-opacity:0.35443037;stroke:none;stroke-width:50;stroke-linecap:round;stroke-linejoin:round;stroke-miterlimit:4;stroke-dasharray:none;stroke-dashoffset:0;stroke-opacity:1"
         id="circle4165"
         cx="-194.87335"
         cy="825.37524"
         r="249.30348"
         transform="matrix(0.8660254,-0.5,0.5,0.8660254,0,0)" />
    </clipPath>
  </defs>
  <sodipodi:namedview
     id="base"
     pagecolor="#ffffff"
     bordercolor="#666666"
     borderopacity="1.0"
     inkscape:pageopacity="0.0"
     inkscape:pageshadow="2"
     inkscape:zoom="0.78972675"
     inkscape:cx="273.71071"
     inkscape:cy="238.09146"
     inkscape:document-units="px"
     inkscape:current-layer="layer1"
     showgrid="false"
     units="px"
     inkscape:window-width="1536"
     inkscape:window-height="801"
     inkscape:window-x="-8"
     inkscape:window-y="-8"
     inkscape:window-maximized="1"
     inkscape:snap-bbox="true"
     inkscape:snap-center="true"
     inkscape:object-paths="true"
     inkscape:bbox-paths="false"
     inkscape:object-nodes="true"
     inkscape:snap-smooth-nodes="false"
     inkscape:snap-midpoints="true">
    <inkscape:grid
       type="xygrid"
       id="grid4136"
       spacingx="9.9999996"
       spacingy="9.9999992" />
  </sodipodi:namedview>
  <metadata
     id="metadata7">
    <rdf:RDF>
      <cc:Work
         rdf:about="">
        <dc:format>image/svg+xml</dc:format>
        <dc:type
           rdf:resource="http://purl.org/dc/dcmitype/StillImage" />
        <dc:title></dc:title>
      </cc:Work>
    </rdf:RDF>
  </metadata>
  <g
     inkscape:label="Ebene 1"
     inkscape:groupmode="layer"
     id="layer1"
     transform="translate(0,-552.36224)">
    <g
       id="g4147"
       transform="matrix(0.69282032,0.4,-0.4,0.69282032,405.89868,142.06204)"
       clip-path="url(#clipPath4163)">
      <path
         style="display:inline;fill:#c9e1d6;fill-opacity:1;stroke:none;stroke-width:10;stroke-miterlimit:4;stroke-dasharray:none;stroke-opacity:1"
         d="M 283.88672 47.982422 C 239.82763 99.6595 343.26942 217.1268 305.66602 282.25781 C 296.40462 298.29902 258.0539 299.54849 215.75781 305.98242 C 219.40282 315.63262 223.14669 325.29986 226.57031 334.85742 C 261.85475 328.03553 296.32521 314.43622 316.59375 279.33008 C 368.59375 189.26344 285.455 141.26445 297.74219 55.982422 L 283.88672 47.982422 z M 185.79688 311.57617 C 146.19623 320.79584 108.24103 338.48844 91.886719 380.53516 L 105.74219 388.53516 C 105.59109 387.28101 105.48733 386.06704 105.42188 384.88477 L 102.95703 383.46094 A 5.0004998 5.0004998 0 0 1 100.46875 378.77734 C 100.71045 375.37362 101.32175 372.18651 102.31055 369.23047 A 5.0004998 5.0004998 0 0 1 109.04688 366.23438 C 111.37598 361.99469 114.74469 358.56938 118.96875 355.75586 L 118.69727 355.59961 A 5.0004998 5.0004998 0 0 1 117.88086 347.52539 C 117.97546 347.44163 118.32993 347.04605 119.04688 346.44336 C 120.68355 345.06757 122.40935 343.73683 124.23047 342.48438 C 124.89746 342.02567 125.27586 341.83431 125.29102 341.82422 A 5.0004998 5.0004998 0 0 1 130.55469 341.66016 L 140.25586 347.26172 C 146.76685 345.67726 153.9879 344.48595 161.6543 343.44922 L 152.73047 338.29883 A 5.0004998 5.0004998 0 0 1 153.76953 329.1875 C 156.53156 328.34353 159.37908 327.42202 162.51172 326.62305 C 163.47093 326.3784 164.27047 326.23015 164.82031 326.0957 A 5.0004998 5.0004998 0 0 1 168.50781 326.62305 L 185.22852 336.27539 A 5.0004998 5.0004998 0 0 1 187.36523 338.73438 C 187.58241 339.27219 187.79374 339.80353 188.00977 340.33984 C 190.62131 340.04588 193.24268 339.75005 195.89648 339.43359 C 192.29735 330.38027 188.77476 321.11307 185.79688 311.57617 z "
         transform="matrix(1.0825316,-0.62499993,0.62499993,1.0825316,-182.96058,697.84967)"
         id="path4214" />
      <path
         style="display:inline;fill:#c9e1d6;fill-opacity:1;stroke:none;stroke-width:10;stroke-miterlimit:4;stroke-dasharray:none;stroke-opacity:1"
         d="M 400.69141 115.41992 C 398.48364 118.48301 395.64343 121.05906 392.28125 123.26367 L 393.78516 124.13281 A 5.0004998 5.0004998 0 0 1 394.59766 132.20703 C 394.50311 132.29073 394.1506 132.68634 393.43359 133.28906 C 391.79692 134.66485 390.06917 135.99559 388.24805 137.24805 C 387.58105 137.70676 387.20461 137.89811 387.18945 137.9082 A 5.0004998 5.0004998 0 0 1 381.92578 138.07031 L 370.88281 131.69531 C 364.35238 133.26723 357.12912 134.45259 349.45312 135.48633 L 359.75 141.43164 A 5.0004998 5.0004998 0 0 1 358.71094 150.54492 C 355.94891 151.38888 353.10139 152.31041 349.96875 153.10938 C 349.00954 153.35403 348.21 153.50032 347.66016 153.63477 A 5.0004998 5.0004998 0 0 1 343.97266 153.10938 L 319.53906 139.00195 C 316.98788 139.2972 314.41918 139.60139 311.83398 139.92383 C 315.51905 149.33783 319.37591 158.6162 322.82031 167.94531 C 355.92673 160.57087 388.22151 147.57809 408.11719 119.70703 L 400.69141 115.41992 z M 286.61719 143.75195 C 250.78731 150.48346 215.57383 163.95259 194.99414 199.59766 C 171.55948 241.11939 175.29794 277.95257 185.79688 311.57617 C 186.0557 312.4051 186.32311 313.22965 186.58984 314.05469 C 186.8025 314.71235 187.0268 315.36635 187.24414 316.02148 C 187.53905 316.91041 187.83386 317.78948 188.13672 318.67383 C 188.50754 319.75739 188.88223 320.8449 189.26367 321.92188 C 189.71115 323.18434 190.15918 324.42228 190.61914 325.67578 C 191.27906 327.47606 191.95877 329.24695 192.63867 331.0293 C 193.00661 331.99314 193.36995 332.95914 193.74219 333.91797 C 194.45929 335.7651 195.16927 337.60436 195.89648 339.43359 C 211.61321 378.96762 228.81261 414.22662 208.69141 447.97266 L 216.11719 452.25977 C 220.61294 446.30987 228.26872 433.0219 232.59375 424.82227 C 246.15455 399.11294 238.29613 367.59177 226.57031 334.85742 C 226.49705 334.6529 226.42316 334.4429 226.34961 334.23828 C 225.56194 332.04734 224.75935 329.85448 223.94336 327.6543 C 223.81573 327.30972 223.68675 326.96782 223.55859 326.62305 C 222.79758 324.57874 222.02526 322.52031 221.25 320.4707 C 221.06018 319.96805 220.87005 319.45991 220.67969 318.95703 C 220.54978 318.61441 220.42503 318.2685 220.29492 317.92578 C 218.78502 313.94858 217.26169 309.96396 215.75781 305.98242 C 200.96297 266.81291 187.93136 227.83041 205.92188 196.66992 C 207.68381 193.61816 210.50006 191.10199 214.19336 188.98242 A 5.0004998 5.0004998 0 0 1 213.88086 181.24805 C 213.97541 181.16435 214.32987 180.76874 215.04688 180.16602 C 216.68354 178.79023 218.40935 177.45948 220.23047 176.20703 C 220.89746 175.74832 221.27586 175.55697 221.29102 175.54688 A 5.0004998 5.0004998 0 0 1 226.55469 175.38281 L 237.10547 181.47461 C 243.72924 180.13182 251.08758 179.00945 258.96484 177.92969 L 248.73047 172.02148 A 5.0004998 5.0004998 0 0 1 249.76953 162.91016 C 252.53156 162.06619 255.37908 161.14467 258.51172 160.3457 C 259.47093 160.10105 260.27047 159.95476 260.82031 159.82031 A 5.0004998 5.0004998 0 0 1 264.50781 160.3457 L 288.19531 174.02148 C 291.05511 173.61678 293.93488 173.19669 296.83789 172.74805 C 293.4281 163.01956 289.89846 153.29663 286.61719 143.75195 z "
         id="path3961"
         transform="matrix(1.0825316,-0.62499993,0.62499993,1.0825316,-182.96058,697.84967)" />
      <path
         id="path4207"
         d="m 184.09373,592.36224 c 2.00743,3.45811 4.14073,6.79217 6.34375,10 l 126.34373,0 c 0.21434,-0.43087 0.48141,-0.84884 0.6875,-1.28125 1.09375,-2.29492 2.05664,-4.62805 2.90625,-6.96875 0.20957,-0.57738 0.33727,-1.1697 0.53125,-1.75 l -136.81248,0 z m 32.28124,39.99999 c 3.62189,3.44821 7.3311,6.75968 11.09375,10 l 57.62499,0 c 0.68867,-0.65903 1.44768,-1.30759 2.125,-1.96875 2.71325,-2.6485 5.14957,-5.34402 7.65625,-8.03125 l -78.49999,0 z m -12.78125,79.99999 c -0.68867,0.65903 -1.44768,1.30759 -2.125,1.96875 -2.71325,2.6485 -5.14957,5.34402 -7.65624,8.03125 l 78.31249,0 c -3.54711,-3.35813 -7.20858,-6.68553 -10.90625,-10 l -57.625,0 z m -31.68749,40 c -0.21434,0.43087 -0.48141,0.84884 -0.6875,1.28125 -1.09375,2.29492 -2.05664,4.62805 -2.90625,6.96875 -0.20957,0.57738 -0.33727,1.1697 -0.53125,1.75 l 139.49998,0 c -2.24527,-3.36711 -4.69842,-6.69901 -7.28125,-10 l -128.09373,0 z m -8.34375,39.99999 c 0.4516,3.39521 1.12863,6.72429 2,10 l 158.09373,0 c -0.47097,-3.37582 -1.20944,-6.70163 -2.125,-10 l -157.96873,0 z m 16.09375,40 c 2.2707,3.38226 4.7203,6.72022 7.34375,10 l 129.78123,0 c 0.21434,-0.43087 0.48141,-0.84884 0.6875,-1.28125 1.09375,-2.29492 2.05664,-4.62805 2.90625,-6.96875 0.20957,-0.57738 0.33727,-1.1697 0.53125,-1.75 l -141.24998,0 z m -19.25,9.125 0,0.875 0.28125,0 c -0.0936,-0.28996 -0.18918,-0.58371 -0.28125,-0.875 z m 55.62499,30.87499 c 3.7478,3.36651 7.62358,6.68434 11.53125,10 l 57.53124,0 c 0.68867,-0.65903 1.44768,-1.30759 2.125,-1.96875 2.71325,-2.6485 5.14957,-5.34402 7.65625,-8.03125 l -78.84374,0 z m -36.68749,8.34375 0,1.65625 1.09375,0 c -0.37327,-0.54494 -0.7261,-1.10577 -1.09375,-1.65625 z m 24.24999,71.65624 c -0.68867,0.65903 -1.44768,1.30759 -2.125,1.96875 -2.71325,2.6485 -5.14957,5.34402 -7.65624,8.03125 l 72.18749,0 c -4.14023,-3.32425 -8.36134,-6.64315 -12.65625,-10 l -49.75,0 z m -31.68749,40 c -0.21434,0.43087 -0.48141,0.84884 -0.6875,1.28125 -1.09375,2.29492 -2.05664,4.62805 -2.90625,6.96876 -0.20957,0.5774 -0.33727,1.1697 -0.53125,1.75 l 138.87498,0 c -2.44266,-3.41983 -5.10709,-6.75132 -7.96875,-10.00001 l -126.78123,0 z m 158.87498,0 c 0.11969,0.3744 0.22964,0.74913 0.34375,1.125 l 0,-1.125 -0.34375,0 z m -166.09373,40.00001 c 0.6625,3.2549 1.8079,6.5854 3.46875,10 l 154.31248,0 c -0.36435,-3.4359 -0.91369,-6.7719 -1.6875,-10 l -156.09373,0 z m 169.90623,0 c -0.0319,3.468 -0.092,6.8455 -0.21875,10 l 0.6875,0 0,-10 -0.46875,0 z"
         style="display:inline;fill:#c9e1d6;fill-opacity:1;stroke:none;stroke-width:5;stroke-miterlimit:4;stroke-dasharray:none;stroke-opacity:1"
         inkscape:connector-curvature="0" />
      <path
         inkscape:connector-curvature="0"
         id="path4162"
         d="m 152.90623,1035.9872 0,6.375 0.3125,0 c -0.15886,-2.1486 -0.26702,-4.2657 -0.3125,-6.375 z"
         style="display:inline;opacity:0.33000004;fill:#ff0000;fill-opacity:1;stroke:none" />
      <path
         inkscape:connector-curvature="0"
         style="display:inline;fill:none;fill-opacity:1;stroke:#000000;stroke-width:12.49999855;stroke-linecap:round;stroke-linejoin:round;stroke-miterlimit:4;stroke-dasharray:none;stroke-opacity:1;opacity:0"
         d="m 206.98694,592.36224 c 2.00743,3.45811 4.14073,6.79217 6.34375,10 l 103.45052,0 c 0.21434,-0.43087 0.48141,-0.84884 0.6875,-1.28125 1.09375,-2.29492 2.05664,-4.62805 2.90625,-6.96875 0.20957,-0.57738 0.33727,-1.1697 0.53125,-1.75 z m 26.03581,39.99999 c 3.62189,3.44821 7.3311,6.75968 11.09375,10 l 40.97721,0 c 0.68867,-0.65903 1.44768,-1.30759 2.125,-1.96875 2.71325,-2.6485 5.14957,-5.34402 7.65625,-8.03125 z m -29.42903,79.99999 c -0.68867,0.65903 -1.44768,1.30759 -2.125,1.96875 -2.71325,2.6485 -5.14957,5.34402 -7.65624,8.03125 l 56.79223,0 c -3.54711,-3.35813 -7.20858,-6.68553 -10.90625,-10 z m -31.68749,40 c -0.21434,0.43087 -0.48141,0.84884 -0.6875,1.28125 -1.09375,2.29492 -2.05664,4.62805 -2.90625,6.96875 -0.20957,0.57738 -0.33727,1.1697 -0.53125,1.75 l 117.97972,0 c -2.24527,-3.36711 -4.69842,-6.69901 -7.28125,-10 z m 3.60758,39.99999 c 0.4516,3.39521 1.12863,6.72429 2,10 l 146.1424,0 c -0.47097,-3.37582 -1.20944,-6.70163 -2.125,-10 z m 16.09375,40 c 2.2707,3.38226 4.7203,6.72022 7.34375,10 l 117.8299,0 c 0.21434,-0.43087 0.48141,-0.84884 0.6875,-1.28125 1.09375,-2.29492 2.05664,-4.62805 2.90625,-6.96875 0.20957,-0.57738 0.33727,-1.1697 0.53125,-1.75 z m 41.42622,39.99999 c 3.7478,3.36651 7.62358,6.68434 11.53125,10 l 40.52868,0 c 0.68867,-0.65903 1.44768,-1.30759 2.125,-1.96875 2.71325,-2.6485 5.14957,-5.34402 7.65625,-8.03125 z m -29.44006,79.99999 c -0.68867,0.65903 -1.44768,1.30759 -2.125,1.96875 -2.71325,2.6485 -5.14957,5.34402 -7.65624,8.03125 l 46.57119,0 c -4.14023,-3.32425 -8.36134,-6.64315 -12.65625,-10 z m -31.68749,40 c -0.21434,0.43087 -0.48141,0.84884 -0.6875,1.28125 -1.09375,2.29492 -2.05664,4.62805 -2.90625,6.96876 -0.20957,0.5774 -0.33727,1.1697 -0.53125,1.75 l 113.25868,0 c -2.44266,-3.41983 -5.10709,-6.75132 -7.96875,-10.00001 z m -7.21875,40.00001 c 0.6625,3.2549 1.8079,6.5854 3.46875,10 l 128.69618,0 c -0.36435,-3.4359 -0.91369,-6.7719 -1.6875,-10 z"
         id="path4169"
         sodipodi:nodetypes="cccsscccccscccscccccssccccccccccccsscccccscccscccccscccccccccc" />
    </g>
  </g>
</svg>
