<svg xmlns="http://www.w3.org/2000/svg" width="500" height="500" viewBox="0 0 499.99998 499.99996"><path d="M213.316 70C205.94 70 200 75.94 200 83.316v3.368C200 94.06 205.94 100 213.316 100H214v85.381L100.764 370.25l.017.03c-2.463 4.154-3.77 8.89-3.78 13.72 0 14.912 12.088 27 27 27h252c14.912 0 27-12.088 27-27-.01-4.828-1.317-9.566-3.78-13.72l.016-.03L286 185.38V100h.684C294.06 100 300 94.06 300 86.684v-3.368C300 75.94 294.06 70 286.684 70h-73.368zM238 100h24c3.222 0 5.827 2.516 5.984 5.697H268V190.45l7.918 12.93L294.3 233.4l89.44 146.07c.818 1.377 1.248 2.945 1.256 4.548-.01 5.174-3.82 8.982-8.996 8.982H124c-5.177 0-8.987-3.808-8.996-8.982.008-1.603.438-3.173 1.256-4.55L199.822 243l17.014-27.785 7.246-11.836L232 190.45v-84.753h.016c.157-3.18 2.762-5.697 5.984-5.697zm-23.957 155c-1.46.01-2.718.073-4.05.115L134.742 378H365.26l-70.006-114.32c-2.918.15-5.767.32-9.254.32-18.513 0-28.942-2.48-38.217-4.764-9.274-2.283-17.33-4.353-33.74-4.236z" fill="#c9e1d6"/></svg>
