<?xml version="1.0" encoding="UTF-8" standalone="no"?>
<!-- Created with Inkscape (http://www.inkscape.org/) -->

<svg
   xmlns:dc="http://purl.org/dc/elements/1.1/"
   xmlns:cc="http://creativecommons.org/ns#"
   xmlns:rdf="http://www.w3.org/1999/02/22-rdf-syntax-ns#"
   xmlns:svg="http://www.w3.org/2000/svg"
   xmlns="http://www.w3.org/2000/svg"
   xmlns:sodipodi="http://sodipodi.sourceforge.net/DTD/sodipodi-0.dtd"
   xmlns:inkscape="http://www.inkscape.org/namespaces/inkscape"
   width="500"
   height="500"
   viewBox="0 0 499.99998 499.99996"
   id="svg2"
   version="1.1"
   inkscape:version="0.91 r13725"
   sodipodi:docname="sym_nutrient.svg">
  <defs
     id="defs4" />
  <sodipodi:namedview
     id="base"
     pagecolor="#ffffff"
     bordercolor="#666666"
     borderopacity="1.0"
     inkscape:pageopacity="0.0"
     inkscape:pageshadow="2"
     inkscape:zoom="0.5"
     inkscape:cx="-28.579254"
     inkscape:cy="376.04304"
     inkscape:document-units="px"
     inkscape:current-layer="layer1"
     showgrid="false"
     units="px"
     inkscape:window-width="1536"
     inkscape:window-height="801"
     inkscape:window-x="-8"
     inkscape:window-y="-8"
     inkscape:window-maximized="1"
     inkscape:snap-bbox="true"
     inkscape:snap-center="true">
    <inkscape:grid
       type="xygrid"
       id="grid4136" />
  </sodipodi:namedview>
  <metadata
     id="metadata7">
    <rdf:RDF>
      <cc:Work
         rdf:about="">
        <dc:format>image/svg+xml</dc:format>
        <dc:type
           rdf:resource="http://purl.org/dc/dcmitype/StillImage" />
        <dc:title></dc:title>
      </cc:Work>
    </rdf:RDF>
  </metadata>
  <g
     inkscape:label="Ebene 1"
     inkscape:groupmode="layer"
     id="layer1"
     transform="translate(0,-552.36224)">
    <path
       style="fill:#c9e1d6;fill-opacity:1;fill-rule:evenodd;stroke:none;stroke-width:24.99999619;stroke-linecap:butt;stroke-linejoin:miter;stroke-miterlimit:4;stroke-dasharray:none;stroke-opacity:1"
       d="m 184.92796,608.20487 c 1.21558,0.97668 2.40339,1.96004 3.57682,2.94697 0.39948,0.33601 0.7899,0.67426 1.18454,1.01142 0.78654,0.67197 1.56611,1.34467 2.33348,2.02112 0.42599,0.37554 0.84907,0.75242 1.26917,1.12931 0.76489,0.68615 1.51835,1.37417 2.26387,2.06468 0.35647,0.3302 0.71804,0.66024 1.07011,0.99141 1.06217,0.99906 2.10751,2.00165 3.12985,3.00926 0.19814,0.19532 0.3876,0.39263 0.58426,0.58826 0.84543,0.84089 1.67942,1.68437 2.49751,2.53086 0.34675,0.35884 0.68738,0.71899 1.02924,1.07881 0.63262,0.66573 1.25709,1.3334 1.87308,2.00238 0.39624,0.43041 0.79084,0.86142 1.18024,1.29313 0.62766,0.69571 1.24401,1.39216 1.854,2.09115 0.29094,0.33347 0.58758,0.6664 0.87453,1.0006 0.87065,1.01376 1.72441,2.0306 2.55852,3.05073 0.34493,0.42198 0.67745,0.84611 1.01617,1.26913 0.48355,0.60371 0.96308,1.20821 1.43407,1.81397 0.41226,0.53041 0.81671,1.06144 1.2194,1.59336 0.40745,0.53803 0.81061,1.07676 1.20832,1.61628 0.37517,0.50914 0.75086,1.01821 1.11741,1.52863 0.45399,0.63194 0.89519,1.26639 1.33603,1.90021 0.30473,0.43829 0.61681,0.87524 0.91528,1.31439 0.63732,0.93771 1.2596,1.87763 1.86862,2.81901 0.009,0.0131 0.0159,0.0273 0.0244,0.0404 0.43197,0.66817 0.85029,1.33859 1.26811,2.00848 0.23777,0.38103 0.47719,0.76219 0.71041,1.14375 0.40846,0.66857 0.8086,1.33811 1.20319,2.00822 0.21392,0.36312 0.42536,0.72609 0.63522,1.08964 0.41181,0.71372 0.82067,1.42703 1.21696,2.14231 0.10071,0.18167 0.19633,0.36361 0.29605,0.54538 0.9584,1.74809 1.8774,3.50109 2.74465,5.25696 0.41668,0.84364 0.81782,1.6889 1.21375,2.53402 0.0845,0.18024 0.17062,0.36015 0.25418,0.54046 0.37992,0.82033 0.75023,1.64006 1.11085,2.46154 0.0803,0.1827 0.15809,0.36557 0.2374,0.54833 1.60712,3.70588 3.02379,7.42317 4.24928,11.14124 0.005,0.0157 0.0102,0.0317 0.0154,0.0473 0.004,0.0114 0.008,0.0226 0.0119,0.034 1.89462,5.761 3.3402,11.52564 4.36978,17.26266 0.13635,0.7594 0.2673,1.51848 0.38909,2.27682 0.0859,0.53543 0.16667,1.07054 0.24541,1.60537 0.11607,0.78786 0.22561,1.57447 0.3262,2.36089 0.0661,0.51735 0.12846,1.03451 0.18792,1.55116 0.0897,0.7785 0.17148,1.55611 0.24623,2.33292 0.0522,0.54282 0.10268,1.08475 0.14762,1.62669 0.0614,0.73939 0.11355,1.47738 0.16159,2.21501 0.0371,0.57119 0.0734,1.14255 0.10263,1.7126 0.0358,0.69761 0.0639,1.39413 0.0879,2.08993 0.0211,0.61282 0.0402,1.22518 0.0523,1.8365 0.0132,0.66698 0.0175,1.3325 0.02,1.9976 0.002,0.61564 0.003,1.23111 -0.004,1.84505 -0.007,0.66239 -0.0229,1.32278 -0.0406,1.98309 -0.0168,0.62366 -0.0339,1.24762 -0.0599,1.86933 -0.0256,0.61184 -0.0594,1.22214 -0.0938,1.832 -0.0381,0.67399 -0.0781,1.34732 -0.12692,2.01879 -0.19672,2.70912 -0.47555,5.39734 -0.83969,8.06099 -0.12138,0.88789 -0.25178,1.77349 -0.3924,2.65563 l -0.004,4.6e-4 c -0.0108,0.0674 -0.0208,0.13485 -0.0313,0.20229 -0.002,0.0149 -0.006,0.0294 -0.009,0.0443 -0.17439,1.08011 -0.36171,2.15715 -0.56315,3.22826 -0.0171,0.0936 -0.0321,0.18764 -0.0496,0.28112 -0.003,0.0182 -0.008,0.0362 -0.0113,0.0544 -0.15116,0.79203 -0.31349,1.58023 -0.47936,2.36692 -0.0421,0.19966 -0.0833,0.39958 -0.12638,0.59889 -0.16176,0.74915 -0.32926,1.49589 -0.50409,2.24002 -0.0445,0.18954 -0.0885,0.37912 -0.1339,0.56831 -0.18868,0.78691 -0.3843,1.57096 -0.58731,2.35206 -0.0305,0.11743 -0.0636,0.234 -0.0945,0.35129 -0.22028,0.83781 -0.44509,1.67376 -0.68149,2.50469 -0.3038,1.06789 -0.62142,2.12959 -0.95165,3.18536 -0.0563,0.17782 -0.11231,0.35573 -0.16949,0.53315 -0.003,0.009 -0.005,0.0191 -0.008,0.0285 -0.29348,0.92344 -0.59826,1.84221 -0.91159,2.75588 -0.006,0.0182 -0.0109,0.0369 -0.0171,0.0551 -0.023,0.0657 -0.0466,0.13115 -0.0693,0.19692 l 0.002,0.002 c -2.05765,5.95912 -4.53447,11.70302 -7.37788,17.18201 l -0.002,-0.002 c -0.0337,0.0649 -0.0674,0.12976 -0.10104,0.19475 -0.005,0.009 -0.01,0.0181 -0.0145,0.0273 -0.41039,0.78709 -0.82729,1.56974 -1.25274,2.34558 0,0 -0.002,2.2e-4 -0.002,2.2e-4 -0.1437,0.26202 -0.28851,0.523 -0.43302,0.78434 -0.005,0.009 -0.0113,0.0181 -0.0164,0.0275 -0.37921,0.67943 -0.76634,1.35314 -1.15681,2.02361 -0.1957,0.3371 -0.39062,0.67471 -0.58952,1.00917 -0.007,0.0112 -0.013,0.0226 -0.0196,0.0338 -0.38731,0.65063 -0.78301,1.29425 -1.18086,1.93597 -0.12522,0.20263 -0.24843,0.40685 -0.37501,0.6084 l 0.004,0.001 c -1.29508,2.06264 -2.64401,4.07729 -4.04412,6.04179 l -0.004,-0.001 c -0.12237,0.17166 -0.24741,0.34071 -0.37064,0.51152 -0.47512,0.65942 -0.95475,1.31492 -1.44125,1.9626 -0.23811,0.31637 -0.47813,0.6305 -0.71913,0.94375 -0.008,0.0102 -0.0161,0.0201 -0.024,0.0303 -0.42693,0.55669 -0.85688,1.11045 -1.29215,1.65798 -0.24083,0.30159 -0.48122,0.60372 -0.7239,0.90302 -0.46051,0.56799 -0.92551,1.13007 -1.39484,1.68773 -0.007,0.008 -0.014,0.016 -0.0208,0.0241 -0.13496,0.15897 -0.26888,0.31924 -0.40407,0.47808 l 0.004,0.003 c -0.63903,0.75091 -1.28947,1.48675 -1.94417,2.21826 -0.0548,0.061 -0.10842,0.12337 -0.16322,0.18434 l 0.002,0.002 c -0.85638,0.95283 -1.72404,1.89243 -2.60616,2.81117 -0.80229,0.83561 -1.59327,1.68233 -2.37877,2.53671 l 0.013,0.0103 c -0.23456,0.25512 -0.47407,0.50468 -0.7071,0.76143 l -0.002,-0.004 c -0.0496,0.0546 -0.0983,0.11014 -0.14782,0.16483 -0.30791,0.34019 -0.6127,0.68308 -0.91792,1.02608 -0.16993,0.19087 -0.34205,0.37948 -0.51111,0.57127 l 0.009,0.007 c -0.28449,0.32276 -0.56519,0.64939 -0.84727,0.97454 l -0.0108,-0.009 c -0.42529,0.49022 -0.84605,0.9845 -1.26584,1.47988 -0.33572,0.39637 -0.66608,0.79705 -0.99819,1.19675 l -0.006,-0.005 c -0.5198,0.62555 -1.03332,1.25664 -1.54415,1.89012 l 0.0108,0.009 c -0.21653,0.26855 -0.43824,0.53236 -0.65314,0.8023 l -0.009,-0.007 c -0.10608,0.13323 -0.20886,0.26918 -0.31459,0.4027 -0.22712,0.28709 -0.44992,0.57722 -0.67518,0.86583 -0.38401,0.49103 -0.77237,0.9785 -1.15049,1.47421 l 0.0174,0.0137 c -0.004,0.006 -0.009,0.0115 -0.0137,0.0173 l -0.0173,-0.0137 c -0.42024,0.55109 -0.82932,1.11073 -1.24183,1.66782 -0.211,0.28398 -0.42443,0.56582 -0.63363,0.85112 -0.0582,0.0795 -0.11857,0.15747 -0.17671,0.23706 l 0.004,0.003 c -0.20966,0.287 -0.40995,0.58063 -0.61778,0.86894 l -0.0106,-0.007 c -0.49248,0.68306 -0.98148,1.36746 -1.46353,2.05764 l 0.002,-2.3e-4 0.007,0.007 c -0.35321,0.50582 -0.70712,1.01048 -1.05465,1.51999 -0.30167,0.44241 -0.60462,0.88402 -0.90204,1.32903 l 0.0128,0.008 c -0.22845,0.34191 -0.45803,0.68269 -0.6839,1.02615 l -0.0108,-0.009 c -0.18609,0.2829 -0.36677,0.56902 -0.55081,0.85321 -0.21819,0.33754 -0.43801,0.67405 -0.65398,1.01281 -0.0292,0.0455 -0.0592,0.0906 -0.0883,0.13621 -0.0385,0.0604 -0.078,0.12036 -0.11644,0.18083 l 0.004,0.001 c -0.13805,0.21716 -0.26985,0.43767 -0.40686,0.65539 l -0.0128,-0.008 c -0.6518,1.0355 -1.29034,2.07821 -1.91831,3.12573 -0.0944,0.15765 -0.18465,0.31723 -0.27855,0.47515 -0.50136,0.84261 -1.00049,1.686 -1.48604,2.53618 l 0.0169,0.01 c -0.0655,0.11472 -0.13241,0.22888 -0.19762,0.34373 l -0.0126,-0.006 c -0.13535,0.23833 -0.2654,0.47869 -0.39957,0.71748 -0.24334,0.43359 -0.48291,0.86863 -0.72209,1.30397 -0.15392,0.27976 -0.31405,0.55679 -0.46613,0.83738 l 0.0147,0.008 c -0.0557,0.10282 -0.11087,0.20569 -0.16634,0.3086 l -0.0147,-0.008 c -0.43443,0.80564 -0.85681,1.61589 -1.27662,2.42704 -0.14843,0.28675 -0.29716,0.57291 -0.44377,0.86031 l -0.004,-0.001 c -0.71596,1.40315 -1.40984,2.81493 -2.08147,4.23236 -0.21132,0.44615 -0.40629,0.89686 -0.61313,1.3443 -0.48044,1.03883 -0.95721,2.07829 -1.41318,3.12348 -0.15901,0.3646 -0.31036,0.7307 -0.46325,1.09661 -0.004,-0.005 -0.009,-0.009 -0.0135,-0.0141 -3.66499,8.5788 -6.4772,17.34846 -8.33808,26.09294 -0.0809,0.38011 -0.16855,0.75992 -0.24579,1.13992 -0.14865,0.73151 -0.28426,1.4618 -0.41918,2.1927 -0.0858,0.46483 -0.17111,0.92976 -0.25132,1.39427 -0.12587,0.72905 -0.24325,1.45715 -0.35517,2.18518 -0.0708,0.46057 -0.1366,0.9205 -0.20181,1.38059 -0.10388,0.73326 -0.20719,1.46618 -0.29663,2.19799 -0.0519,0.42413 -0.093,0.84748 -0.13993,1.27106 -0.17713,1.59804 -0.32185,3.19136 -0.42829,4.77975 -0.0144,0.21465 -0.0351,0.43034 -0.0482,0.64478 -0.0434,0.71184 -0.0712,1.42027 -0.10014,2.1297 -0.0194,0.47442 -0.0405,0.9489 -0.0534,1.42216 -0.019,0.70494 -0.0273,1.40772 -0.0317,2.10986 -0.003,0.46143 -0.002,0.92223 9.6e-4,1.38236 0.005,0.70004 0.0153,1.39924 0.0355,2.09608 0.0136,0.47114 0.0367,0.9396 0.0572,1.40919 0.0298,0.68134 0.0555,1.36344 0.0999,2.04132 0.0698,1.0679 0.15591,2.1318 0.2623,3.1904 0.0484,0.48071 0.11243,0.9568 0.16844,1.43546 0.0772,0.66103 0.15599,1.32181 0.24792,1.97873 0.0799,0.5702 0.17183,1.13669 0.26284,1.70363 0.0927,0.57811 0.18899,1.15497 0.29342,1.72954 0.0988,0.54335 0.20131,1.08521 0.31067,1.62526 0.1289,0.63707 0.26834,1.27015 0.41203,1.90245 0.11086,0.48759 0.21689,0.97631 0.33662,1.46096 0.19505,0.78999 0.41149,1.57286 0.63028,2.3547 0.16302,0.58222 0.33264,1.16215 0.50896,1.73965 0.23564,0.77219 0.47517,1.54365 0.73481,2.30703 0.15509,0.4558 0.32413,0.90612 0.48784,1.35866 0.22926,0.63397 0.46352,1.26569 0.70984,1.89306 0.17847,0.4544 0.36116,0.9066 0.54866,1.35742 0.25913,0.62329 0.52954,1.24191 0.80603,1.85817 0.19509,0.43465 0.38746,0.87025 0.59124,1.30129 0.34436,0.72858 0.70876,1.44849 1.07819,2.16645 0.16319,0.31707 0.31551,0.6391 0.48363,0.95405 0.005,0.009 0.008,0.0175 0.0129,0.026 0.44887,0.84008 0.91757,1.66982 1.4018,2.49425 0.0471,0.0803 0.0929,0.16105 0.14039,0.24115 0.46969,0.79249 0.95543,1.57854 1.45833,2.35585 0.0882,0.1363 0.17883,0.27127 0.26802,0.40709 0.50002,0.76128 1.01325,1.51706 1.54576,2.26301 0.0141,0.0197 0.0264,0.0404 0.0405,0.0601 0.001,0.002 0.003,0.003 0.005,0.005 0.01,0.0135 0.0206,0.0263 0.0302,0.0397 0.53132,0.7414 1.08243,1.47247 1.64629,2.19811 0.10967,0.14115 0.21805,0.283 0.32896,0.42353 0.56822,0.71996 1.15217,1.4328 1.75312,2.13641 0.10077,0.11801 0.20502,0.23388 0.30672,0.35142 0.58366,0.67449 1.17978,1.34107 1.79412,1.99985 0.0605,0.0649 0.11938,0.13039 0.18023,0.19516 0.65447,0.69669 1.33033,1.38348 2.01968,2.06188 0.12098,0.11906 0.24228,0.23795 0.36434,0.35645 0.70177,0.68121 1.41823,1.3545 2.15594,2.01638 0.0673,0.0604 0.13644,0.12031 0.20407,0.18057 0.68853,0.61334 1.39447,1.21672 2.11437,1.81282 0.12961,0.10732 0.25721,0.21546 0.38784,0.32222 0.75712,0.61872 1.53263,1.22624 2.32431,1.82554 0.15451,0.11698 0.31004,0.23422 0.46588,0.35044 0.82226,0.6132 1.65791,1.21885 2.51725,1.81076 60.96467,41.99179 127.91939,4.88271 153.49034,-64.83028 C 394.15392,799.36561 275.28622,611.80962 184.92796,608.20487 Z m 83.3575,124.82127 c 5.52907,3.08786 10.0214,8.00953 13.57602,15.04177 7.6907,15.21481 9.95951,41.93276 1.41184,81.24458 -3.78085,17.38862 -8.71083,29.41218 -14.08621,37.07007 -5.37541,7.65789 -10.82581,11.0772 -17.28562,12.48635 -12.27192,2.677 -30.27515,-3.65614 -51.59939,-14.71161 6.41498,-14.44412 15.82791,-28.52091 26.96145,-40.11676 22.5657,-23.50272 37.91286,-55.54581 41.02191,-91.0144 z"
       id="path5446"
       inkscape:connector-curvature="0" />
  </g>
</svg>
