<?xml version="1.0" encoding="UTF-8" standalone="no"?>
<!-- Created with Inkscape (http://www.inkscape.org/) -->

<svg
   xmlns:dc="http://purl.org/dc/elements/1.1/"
   xmlns:cc="http://creativecommons.org/ns#"
   xmlns:rdf="http://www.w3.org/1999/02/22-rdf-syntax-ns#"
   xmlns:svg="http://www.w3.org/2000/svg"
   xmlns="http://www.w3.org/2000/svg"
   xmlns:sodipodi="http://sodipodi.sourceforge.net/DTD/sodipodi-0.dtd"
   xmlns:inkscape="http://www.inkscape.org/namespaces/inkscape"
   width="500"
   height="500"
   viewBox="0 0 499.99998 499.99996"
   id="svg2"
   version="1.1"
   inkscape:version="0.91 r13725"
   sodipodi:docname="sym_egg.svg">
  <defs
     id="defs4" />
  <sodipodi:namedview
     id="base"
     pagecolor="#808080"
     bordercolor="#666666"
     borderopacity="1.0"
     inkscape:pageopacity="0"
     inkscape:pageshadow="2"
     inkscape:zoom="0.5"
     inkscape:cx="348.19383"
     inkscape:cy="69.591363"
     inkscape:document-units="px"
     inkscape:current-layer="layer1"
     showgrid="false"
     units="px"
     inkscape:window-width="1536"
     inkscape:window-height="801"
     inkscape:window-x="-8"
     inkscape:window-y="-8"
     inkscape:window-maximized="1"
     inkscape:snap-bbox="false"
     inkscape:snap-center="true"
     inkscape:snap-nodes="true"
     inkscape:snap-global="true"
     inkscape:object-paths="true">
    <inkscape:grid
       type="xygrid"
       id="grid4136" />
  </sodipodi:namedview>
  <metadata
     id="metadata7">
    <rdf:RDF>
      <cc:Work
         rdf:about="">
        <dc:format>image/svg+xml</dc:format>
        <dc:type
           rdf:resource="http://purl.org/dc/dcmitype/StillImage" />
        <dc:title></dc:title>
      </cc:Work>
    </rdf:RDF>
  </metadata>
  <g
     inkscape:label="Ebene 1"
     inkscape:groupmode="layer"
     id="layer1"
     transform="translate(0,-552.36224)">
    <path
       style="opacity:1;fill:#c9e1d6;fill-opacity:1;stroke:none;stroke-width:29;stroke-linecap:round;stroke-linejoin:round;stroke-miterlimit:4;stroke-dasharray:none;stroke-dashoffset:0;stroke-opacity:1"
       d="M 250,661.96022 A 140.40204,140.40204 0 0 0 109.59798,802.36224 140.40204,140.40204 0 0 0 250,942.76426 140.40204,140.40204 0 0 0 390.40202,802.36224 140.40204,140.40204 0 0 0 250,661.96022 Z m -14.89182,19.85524 A 112.82449,112.82449 0 0 1 347.93255,794.63983 112.82449,112.82449 0 0 1 235.10818,907.46571 112.82449,112.82449 0 0 1 122.28382,794.63983 112.82449,112.82449 0 0 1 235.10818,681.81546 Z"
       id="path6362"
       inkscape:connector-curvature="0" />
    <path
       style="opacity:1;fill:#c9e1d6;fill-opacity:1;stroke:none;stroke-width:29;stroke-linecap:round;stroke-linejoin:round;stroke-miterlimit:4;stroke-dasharray:none;stroke-dashoffset:0;stroke-opacity:1"
       d="m 181.21196,730.12847 a 59.219172,59.219172 0 0 0 -59.2194,59.2194 59.219172,59.219172 0 0 0 59.2194,59.2194 59.219172,59.219172 0 0 0 59.2194,-59.2194 59.219172,59.219172 0 0 0 -59.2194,-59.2194 z m 18.75898,13.8223 a 25.134759,25.134759 0 0 1 25.1352,25.13522 25.134759,25.134759 0 0 1 -25.1352,25.13349 25.134759,25.134759 0 0 1 -25.13521,-25.13349 25.134759,25.134759 0 0 1 25.13521,-25.13522 z"
       id="circle6366"
       inkscape:connector-curvature="0" />
    <circle
       style="opacity:1;fill:#c9e1d6;fill-opacity:1;stroke:none;stroke-width:29;stroke-linecap:round;stroke-linejoin:round;stroke-miterlimit:4;stroke-dasharray:none;stroke-dashoffset:0;stroke-opacity:1"
       id="circle6378"
       cx="299.66739"
       cy="740.94067"
       r="28.853056" />
  </g>
</svg>
