<?xml version="1.0" encoding="UTF-8" standalone="no"?>
<!-- Created with Inkscape (http://www.inkscape.org/) -->

<svg
   xmlns:dc="http://purl.org/dc/elements/1.1/"
   xmlns:cc="http://creativecommons.org/ns#"
   xmlns:rdf="http://www.w3.org/1999/02/22-rdf-syntax-ns#"
   xmlns:svg="http://www.w3.org/2000/svg"
   xmlns="http://www.w3.org/2000/svg"
   xmlns:sodipodi="http://sodipodi.sourceforge.net/DTD/sodipodi-0.dtd"
   xmlns:inkscape="http://www.inkscape.org/namespaces/inkscape"
   width="500"
   height="500"
   viewBox="0 0 499.99998 499.99996"
   id="svg2"
   version="1.1"
   inkscape:version="0.91 r13725"
   sodipodi:docname="sym_file.svg">
  <defs
     id="defs4">
    <pattern
       y="0"
       x="0"
       height="6"
       width="6"
       patternUnits="userSpaceOnUse"
       id="EMFhbasepattern" />
  </defs>
  <sodipodi:namedview
     id="base"
     pagecolor="#ffffff"
     bordercolor="#666666"
     borderopacity="1.0"
     inkscape:pageopacity="0.0"
     inkscape:pageshadow="2"
     inkscape:zoom="1"
     inkscape:cx="159.20503"
     inkscape:cy="196.68618"
     inkscape:document-units="px"
     inkscape:current-layer="layer1"
     showgrid="true"
     units="px"
     inkscape:window-width="1536"
     inkscape:window-height="801"
     inkscape:window-x="-8"
     inkscape:window-y="-8"
     inkscape:window-maximized="1"
     inkscape:snap-bbox="true"
     inkscape:snap-center="false"
     inkscape:object-nodes="true">
    <inkscape:grid
       type="xygrid"
       id="grid4136"
       spacingx="9.9999996"
       spacingy="9.9999992"
       color="#a0a0a0"
       opacity="0.1254902"
       empcolor="#787878"
       empopacity="0.25098039" />
  </sodipodi:namedview>
  <metadata
     id="metadata7">
    <rdf:RDF>
      <cc:Work
         rdf:about="">
        <dc:format>image/svg+xml</dc:format>
        <dc:type
           rdf:resource="http://purl.org/dc/dcmitype/StillImage" />
        <dc:title></dc:title>
      </cc:Work>
    </rdf:RDF>
  </metadata>
  <g
     inkscape:label="Ebene 1"
     inkscape:groupmode="layer"
     id="layer1"
     transform="translate(0,-552.36224)">
    <path
       style="fill:#c9e1d6;fill-rule:evenodd;stroke:none;stroke-width:1px;stroke-linecap:butt;stroke-linejoin:miter;stroke-opacity:1;fill-opacity:1"
       d="M 120 80 L 120 420 L 380 420 L 380 160 L 380 140 L 320 80 L 300 80 L 120 80 z M 145 105 L 300 105 L 300 160 L 355 160 L 355 395 L 145 395 L 145 105 z M 165 125 L 165 145 L 275 145 L 275 125 L 165 125 z M 175 185 L 175 195 L 325 195 L 325 185 L 175 185 z M 175 215 L 175 225 L 325 225 L 325 215 L 175 215 z M 175 245 L 175 255 L 325 255 L 325 245 L 175 245 z M 175 275 L 175 285 L 325 285 L 325 275 L 175 275 z M 175 305 L 175 315 L 325 315 L 325 305 L 175 305 z M 240 335 L 240 345 L 325 345 L 325 335 L 240 335 z "
       transform="translate(0,552.36224)"
       id="path4161" />
  </g>
</svg>
